<svg width="491" height="144" viewBox="0 0 491 144" fill="none" xmlns="http://www.w3.org/2000/svg">
<path d="M152.611 72C152.611 111.495 120.106 144 80.6112 144C41.1165 144 8.61119 111.495 8.61119 72C8.61119 32.5053 41.1165 0 80.6112 0C120.106 0 152.611 32.5053 152.611 72Z" fill="#0066B3"/>
<path d="M81.6035 6.54241C81.6035 6.86392 81.339 7.12849 81.0169 7.12849C80.6954 7.12849 80.4308 6.86392 80.4308 6.54241C80.4308 6.22091 80.6954 5.95578 81.0169 5.95578C81.339 5.95578 81.6035 6.22091 81.6035 6.54241Z" fill="white"/>
<path d="M85.6635 15.428C85.6635 15.8243 85.3375 16.1497 84.9418 16.1497C84.5455 16.1497 84.2195 15.8243 84.2195 15.428C84.2195 15.0323 84.5455 14.7063 84.9418 14.7063C85.3375 14.7063 85.6635 15.0323 85.6635 15.428Z" fill="white"/>
<path d="M96.2209 29.9552C96.2209 30.3509 95.8955 30.6769 95.4992 30.6769C95.1029 30.6769 94.7775 30.3509 94.7775 29.9552C94.7775 29.5589 95.1029 29.2335 95.4992 29.2335C95.8955 29.2335 96.2209 29.5589 96.2209 29.9552Z" fill="white"/>
<path d="M79.2573 20.4359C79.2573 20.7574 78.9927 21.0225 78.6707 21.0225C78.3492 21.0225 78.0846 20.7574 78.0846 20.4359C78.0846 20.1144 78.3492 19.8493 78.6707 19.8493C78.9927 19.8493 79.2573 20.1144 79.2573 20.4359Z" fill="white"/>
<path d="M85.5727 23.7747C85.5727 24.0962 85.3076 24.3614 84.9861 24.3614C84.6646 24.3614 84.4 24.0962 84.4 23.7747C84.4 23.4532 84.6646 23.1881 84.9861 23.1881C85.3076 23.1881 85.5727 23.4532 85.5727 23.7747Z" fill="white"/>
<path d="M77.3636 14.436C77.3636 14.8318 77.0376 15.1577 76.6419 15.1577C76.2456 15.1577 75.9202 14.8318 75.9202 14.436C75.9202 14.0403 76.2456 13.7143 76.6419 13.7143C77.0376 13.7143 77.3636 14.0403 77.3636 14.436Z" fill="white"/>
<path d="M67.7983 20.2554C67.7983 20.5775 67.5337 20.8421 67.2122 20.8421C66.8901 20.8421 66.6256 20.5775 66.6256 20.2554C66.6256 19.9339 66.8901 19.6688 67.2122 19.6688C67.5337 19.6688 67.7983 19.9339 67.7983 20.2554Z" fill="white"/>
<path d="M69.512 21.4292C69.512 21.7507 69.2469 22.0153 68.9254 22.0153C68.6039 22.0153 68.3388 21.7507 68.3388 21.4292C68.3388 21.1071 68.6039 20.8426 68.9254 20.8426C69.2469 20.8426 69.512 21.1071 69.512 21.4292Z" fill="white"/>
<path d="M71.2279 22.6016C71.2279 22.9231 70.9628 23.1877 70.6413 23.1877C70.3192 23.1877 70.0547 22.9231 70.0547 22.6016C70.0547 22.2796 70.3192 22.015 70.6413 22.015C70.9628 22.015 71.2279 22.2796 71.2279 22.6016Z" fill="white"/>
<path d="M68.6104 24.8576C68.6104 25.1791 68.3459 25.4442 68.0244 25.4442C67.7023 25.4442 67.4377 25.1791 67.4377 24.8576C67.4377 24.5355 67.7023 24.271 68.0244 24.271C68.3459 24.271 68.6104 24.5355 68.6104 24.8576Z" fill="white"/>
<path d="M54.9857 34.4217C54.9857 34.7438 54.7211 35.0083 54.399 35.0083C54.0775 35.0083 53.813 34.7438 53.813 34.4217C53.813 34.1002 54.0775 33.8356 54.399 33.8356C54.7211 33.8356 54.9857 34.1002 54.9857 34.4217Z" fill="white"/>
<path d="M57.5116 37.4891C57.5116 37.8106 57.2465 38.0751 56.925 38.0751C56.6035 38.0751 56.3383 37.8106 56.3383 37.4891C56.3383 37.167 56.6035 36.9024 56.925 36.9024C57.2465 36.9024 57.5116 37.167 57.5116 37.4891Z" fill="white"/>
<path d="M55.5263 87.0223C55.5263 87.3438 55.2612 87.609 54.9397 87.609C54.6182 87.609 54.3531 87.3438 54.3531 87.0223C54.3531 86.7008 54.6182 86.4357 54.9397 86.4357C55.2612 86.4357 55.5263 86.7008 55.5263 87.0223Z" fill="white"/>
<path d="M55.8873 100.691C55.8873 101.088 55.5608 101.414 55.165 101.414C54.7693 101.414 54.4433 101.088 54.4433 100.691C54.4433 100.296 54.7693 99.9702 55.165 99.9702C55.5608 99.9702 55.8873 100.296 55.8873 100.691Z" fill="white"/>
<path d="M48.1288 107.685C48.1288 108.006 47.8637 108.271 47.5422 108.271C47.2207 108.271 46.9561 108.006 46.9561 107.685C46.9561 107.362 47.2207 107.098 47.5422 107.098C47.8637 107.098 48.1288 107.362 48.1288 107.685Z" fill="white"/>
<path d="M38.8369 110.527C38.8369 110.923 38.5109 111.249 38.1152 111.249C37.7194 111.249 37.3934 110.923 37.3934 110.527C37.3934 110.13 37.7194 109.804 38.1152 109.804C38.5109 109.804 38.8369 110.13 38.8369 110.527Z" fill="white"/>
<path d="M36.9424 104.21C36.9424 104.606 36.6164 104.932 36.2207 104.932C35.8244 104.932 35.4984 104.606 35.4984 104.21C35.4984 103.814 35.8244 103.488 36.2207 103.488C36.6164 103.488 36.9424 103.814 36.9424 104.21Z" fill="white"/>
<path d="M35.8576 108.225C35.8576 108.547 35.5931 108.811 35.271 108.811C34.9495 108.811 34.6849 108.547 34.6849 108.225C34.6849 107.903 34.9495 107.639 35.271 107.639C35.5931 107.639 35.8576 107.903 35.8576 108.225Z" fill="white"/>
<path d="M28.9106 104.887C28.9106 105.208 28.646 105.474 28.3239 105.474C28.0024 105.474 27.7379 105.208 27.7379 104.887C27.7379 104.565 28.0024 104.3 28.3239 104.3C28.646 104.3 28.9106 104.565 28.9106 104.887Z" fill="white"/>
<path d="M53.1809 116.166C53.1809 116.487 52.9163 116.752 52.5948 116.752C52.2727 116.752 52.0082 116.487 52.0082 116.166C52.0082 115.844 52.2727 115.579 52.5948 115.579C52.9163 115.579 53.1809 115.844 53.1809 116.166Z" fill="white"/>
<path d="M60.4889 110.797C60.4889 111.192 60.1629 111.518 59.7672 111.518C59.3715 111.518 59.0455 111.192 59.0455 110.797C59.0455 110.401 59.3715 110.075 59.7672 110.075C60.1629 110.075 60.4889 110.401 60.4889 110.797Z" fill="white"/>
<path d="M61.303 117.699C61.303 118.021 61.0384 118.286 60.7163 118.286C60.3948 118.286 60.1297 118.021 60.1297 117.699C60.1297 117.378 60.3948 117.114 60.7163 117.114C61.0384 117.114 61.303 117.378 61.303 117.699Z" fill="white"/>
<path d="M91.3467 111.113C91.3467 111.435 91.0821 111.7 90.76 111.7C90.4385 111.7 90.174 111.435 90.174 111.113C90.174 110.79 90.4385 110.527 90.76 110.527C91.0821 110.527 91.3467 110.79 91.3467 111.113Z" fill="white"/>
<path d="M77.3636 116.075C77.3636 116.397 77.0985 116.661 76.777 116.661C76.4555 116.661 76.1909 116.397 76.1909 116.075C76.1909 115.753 76.4555 115.489 76.777 115.489C77.0985 115.489 77.3636 115.753 77.3636 116.075Z" fill="white"/>
<path d="M114.987 123.204C114.987 123.525 114.722 123.79 114.4 123.79C114.079 123.79 113.814 123.525 113.814 123.204C113.814 122.881 114.079 122.617 114.4 122.617C114.722 122.617 114.987 122.881 114.987 123.204Z" fill="white"/>
<path d="M118.053 95.4575C118.053 95.8533 117.727 96.1792 117.332 96.1792C116.936 96.1792 116.61 95.8533 116.61 95.4575C116.61 95.0623 116.936 94.7364 117.332 94.7364C117.727 94.7364 118.053 95.0623 118.053 95.4575Z" fill="white"/>
<path d="M112.278 99.3833C112.278 99.7059 112.014 99.9705 111.692 99.9705C111.37 99.9705 111.105 99.7059 111.105 99.3833C111.105 99.0629 111.37 98.7978 111.692 98.7978C112.014 98.7978 112.278 99.0629 112.278 99.3833Z" fill="white"/>
<path d="M117.965 100.511C117.965 100.907 117.639 101.232 117.243 101.232C116.847 101.232 116.521 100.907 116.521 100.511C116.521 100.115 116.847 99.7891 117.243 99.7891C117.639 99.7891 117.965 100.115 117.965 100.511Z" fill="white"/>
<path d="M112.278 107.504C112.278 107.825 112.014 108.09 111.692 108.09C111.37 108.09 111.105 107.825 111.105 107.504C111.105 107.182 111.37 106.917 111.692 106.917C112.014 106.917 112.278 107.182 112.278 107.504Z" fill="white"/>
<path d="M126.988 91.5329C126.988 91.8545 126.723 92.1196 126.402 92.1196C126.079 92.1196 125.814 91.8545 125.814 91.5329C125.814 91.2114 126.079 90.9463 126.402 90.9463C126.723 90.9463 126.988 91.2114 126.988 91.5329Z" fill="white"/>
<path d="M128.431 95.0978C128.431 95.4946 128.105 95.8195 127.71 95.8195C127.313 95.8195 126.987 95.4946 126.987 95.0978C126.987 94.702 127.313 94.3761 127.71 94.3761C128.105 94.3761 128.431 94.702 128.431 95.0978Z" fill="white"/>
<path d="M138.534 99.3383C138.534 99.7341 138.208 100.06 137.813 100.06C137.416 100.06 137.09 99.7341 137.09 99.3383C137.09 98.9426 137.416 98.6166 137.813 98.6166C138.208 98.6166 138.534 98.9426 138.534 99.3383Z" fill="white"/>
<path d="M128.251 106.873C128.251 107.194 127.986 107.459 127.664 107.459C127.343 107.459 127.078 107.194 127.078 106.873C127.078 106.551 127.343 106.286 127.664 106.286C127.986 106.286 128.251 106.551 128.251 106.873Z" fill="white"/>
<path d="M134.746 100.737C134.746 101.058 134.482 101.323 134.16 101.323C133.838 101.323 133.574 101.058 133.574 100.737C133.574 100.415 133.838 100.15 134.16 100.15C134.482 100.15 134.746 100.415 134.746 100.737Z" fill="white"/>
<path d="M133.574 110.21C133.574 110.531 133.309 110.796 132.987 110.796C132.666 110.796 132.401 110.531 132.401 110.21C132.401 109.888 132.666 109.623 132.987 109.623C133.309 109.623 133.574 109.888 133.574 110.21Z" fill="white"/>
<path d="M94.2415 13.7564C94.3409 13.3897 94.6378 13.1039 95.0112 13.0207L95.2161 11.4763L95.5191 13.0352C95.8808 13.1385 96.161 13.4343 96.2431 13.8044L97.8065 14.026L96.2286 14.304C96.1292 14.6606 95.8429 14.9386 95.4817 15.0268L95.2161 16.6159L94.9481 15.0151C94.5971 14.9135 94.3224 14.6288 94.2354 14.271L92.7272 14.026L94.2415 13.7564Z" fill="white"/>
<path d="M53.7866 124.435C53.8859 124.069 54.1829 123.782 54.5557 123.699L54.7611 122.156L55.0648 123.715C55.4259 123.817 55.7067 124.112 55.7876 124.483L57.3516 124.704L55.7736 124.982C55.6743 125.339 55.3874 125.617 55.0263 125.705L54.7611 127.295L54.4932 125.694C54.1416 125.592 53.8681 125.307 53.7804 124.949L52.2723 124.704L53.7866 124.435Z" fill="white"/>
<path d="M128.183 110.166C128.282 109.799 128.578 109.513 128.952 109.43L129.157 107.885L129.461 109.444C129.822 109.547 130.103 109.843 130.184 110.214L131.747 110.436L130.17 110.714C130.07 111.07 129.784 111.348 129.422 111.436L129.157 113.026L128.889 111.424C128.538 111.323 128.264 111.037 128.177 110.681L126.669 110.436L128.183 110.166Z" fill="white"/>
<path d="M134.072 94.2521C134.171 93.8848 134.468 93.599 134.841 93.5164L135.046 91.9714L135.35 93.5304C135.711 93.6342 135.992 93.9295 136.073 94.3001L137.636 94.5217L136.059 94.7997C135.959 95.1558 135.673 95.4343 135.312 95.5225L135.046 97.1116L134.779 95.5102C134.427 95.4092 134.153 95.1245 134.066 94.7667L132.557 94.5217L134.072 94.2521Z" fill="white"/>
<path d="M61.007 35.4728C61.1064 35.1055 61.4033 34.8203 61.7762 34.7366L61.9816 33.1927L62.2852 34.7516C62.6469 34.8543 62.9271 35.1502 63.0086 35.5208L64.572 35.7424L62.9941 36.0198C62.8947 36.3765 62.6084 36.655 62.2473 36.7432L61.9816 38.3323L61.7137 36.7315C61.3626 36.6293 61.0885 36.3446 61.0014 35.9874L59.4927 35.7424L61.007 35.4728Z" fill="white"/>
<path d="M56.2341 68.9744C61.5534 78.2673 67.7524 85.0675 72.7468 91.5288C77.1798 97.2645 85.8163 100.136 82.7743 102.858C79.3455 105.926 71.045 92.3911 71.045 92.3911C65.5286 85.7389 60.249 78.6815 54.8627 69.4517L56.2341 68.9744Z" fill="white"/>
<path d="M0 93.3587C25.7002 76.4797 70.5538 65.5827 107.496 50.9163C135.563 39.7731 160.522 25.7849 173.938 6.52374C139.937 75.7826 45.246 67.5843 1.84864 94.0039L0 93.3587Z" fill="#ED1C24"/>
<path d="M59.7476 59.017H72.6183L81.8465 82.2556L84.9225 85.3428H68.1664L71.2424 82.2556L70.1496 79.4201H60.9013L59.9502 82.6625L62.1561 85.3428H53.4135L56.4896 82.2556L62.4195 61.7051L59.7476 59.017ZM68.5108 75.3517L64.7867 65.9153L62.055 75.3517H68.5108Z" fill="white"/>
<path d="M119.545 59.017H132.904L142.133 82.2556L145.209 85.3428H128.453L131.529 82.2556L130.436 79.4201H121.187L120.236 82.6625L122.442 85.3428H113.7L116.776 82.2556L122.705 61.7051L119.545 59.017ZM128.797 75.3517L125.073 65.9153L122.341 75.3517H128.797Z" fill="white"/>
<path d="M42.2827 75.4125V61.7051L39.6119 59.017H48.5157L45.8449 61.7051V82.2556L48.921 85.3428H37.2235L27.1458 68.2948V82.2556L29.7357 85.3428H20.4272L23.5032 82.2556V61.7051L20.8319 59.017H32.4886L42.2827 75.4125Z" fill="white"/>
<path d="M109.702 65.7691L109.429 57.5725L106.67 59.4769C102.783 58.1178 98.2595 58.1692 95.0852 59.6712C92.1309 61.0694 88.9438 64.0215 89.3317 68.2161C89.7207 72.4113 92.9715 74.035 95.9013 75.3629C99.6722 77.072 103.776 77.6497 103.716 79.9075C103.677 81.3442 101.293 82.3746 99.4395 82.316C97.7482 82.2624 92.2475 81.8493 89.3707 78.4317L89.9155 87.0537L92.9865 84.8015C96.7179 86.1215 101.241 86.6752 105.425 85.3105C109.584 83.9553 113.956 80.4746 111.53 74.3922C110.486 71.775 107.61 70.1613 105.895 69.4592C104.324 68.8162 99.5333 66.9324 98.1953 66.2352C96.6325 65.4214 96.8066 62.8371 100.567 62.3124C103.973 61.8374 108.692 64.5652 109.702 65.7691Z" fill="white"/>
<path d="M19.9019 133.773C71.5149 81.0963 148.449 56.7586 173.938 6.52374C158.589 55.3632 76.3815 82.2997 19.7623 136.25L19.9019 133.773Z" fill="#ED1C24"/>
<path d="M54.8647 69.4507C54.2602 68.4147 53.6551 67.3514 53.0473 66.2585C39.2868 41.5039 41.2717 16.2408 66.1748 27.2484C87.3108 36.5909 107.498 62.7968 115.617 81.4083C119.379 90.0314 129.466 123.877 96.9849 110.162L96.9213 109.964C127.598 122.596 122.295 90.5862 105.874 66.0448C96.582 52.1582 84.4642 40.5908 76.8212 35.0074C51.3772 16.4211 35.8586 27.7898 53.7232 64.2402C54.5314 65.8896 55.372 67.4647 56.2361 68.9735L54.8647 69.4507Z" fill="white"/>
<path d="M221.985 57H201.641V22.7344H221.985V30.1641H210.899V35.5547H221.165V42.9844H210.899V49.4531H221.985V57ZM249.009 57L247.321 50.5781H236.188L234.454 57H224.282L235.462 22.5938H247.813L259.134 57H249.009ZM245.399 42.9844L243.923 37.3594C243.766 36.75 243.54 35.8828 243.243 34.7578C242.946 33.6172 242.649 32.4453 242.352 31.2422C242.071 30.0234 241.852 29.0234 241.696 28.2422C241.556 29.0234 241.352 29.9922 241.087 31.1484C240.837 32.2891 240.571 33.4219 240.29 34.5469C240.024 35.6719 239.79 36.6094 239.587 37.3594L238.11 42.9844H245.399ZM274.087 22.7344C277.196 22.7344 279.782 23.1172 281.845 23.8828C283.907 24.6328 285.454 25.7578 286.485 27.2578C287.532 28.7578 288.056 30.625 288.056 32.8594C288.056 34.25 287.821 35.5156 287.352 36.6562C286.884 37.7969 286.212 38.8203 285.337 39.7266C284.477 40.6172 283.446 41.3984 282.243 42.0703L292.227 57H281.727L274.462 44.5312H272.118V57H262.86V22.7344H274.087ZM273.946 29.7422H272.118V37.5703H273.852C275.274 37.5703 276.438 37.2578 277.345 36.6328C278.251 36.0078 278.704 34.8906 278.704 33.2812C278.704 32.1719 278.329 31.3047 277.579 30.6797C276.829 30.0547 275.618 29.7422 273.946 29.7422ZM310.462 57H301.204V30.3047H292.837V22.7344H318.806V30.3047H310.462V57ZM353.071 57H343.766V43.0312H333.009V57H323.704V22.7344H333.009V35.4375H343.766V22.7344H353.071V57ZM389.587 39.1406C389.587 43.125 388.845 46.4375 387.36 49.0781C385.876 51.7188 383.782 53.7031 381.079 55.0312C378.391 56.3438 375.227 57 371.587 57H360.501V22.7344H372.36C376.048 22.7344 379.173 23.3672 381.735 24.6328C384.298 25.8984 386.243 27.75 387.571 30.1875C388.915 32.625 389.587 35.6094 389.587 39.1406ZM379.977 39.4688C379.977 37.3906 379.696 35.6719 379.134 34.3125C378.587 32.9375 377.759 31.9141 376.649 31.2422C375.54 30.5547 374.141 30.2109 372.454 30.2109H369.759V49.4062H371.821C374.634 49.4062 376.696 48.5938 378.009 46.9688C379.321 45.3281 379.977 42.8281 379.977 39.4688ZM416.774 57L415.087 50.5781H403.954L402.22 57H392.048L403.227 22.5938H415.579L426.899 57H416.774ZM413.165 42.9844L411.688 37.3594C411.532 36.75 411.306 35.8828 411.009 34.7578C410.712 33.6172 410.415 32.4453 410.118 31.2422C409.837 30.0234 409.618 29.0234 409.462 28.2422C409.321 29.0234 409.118 29.9922 408.852 31.1484C408.602 32.2891 408.337 33.4219 408.056 34.5469C407.79 35.6719 407.556 36.6094 407.352 37.3594L405.876 42.9844H413.165ZM445.743 57H436.485V30.3047H428.118V22.7344H454.087V30.3047H445.743V57ZM480.009 57L478.321 50.5781H467.188L465.454 57H455.282L466.462 22.5938H478.813L490.134 57H480.009ZM476.399 42.9844L474.923 37.3594C474.766 36.75 474.54 35.8828 474.243 34.7578C473.946 33.6172 473.649 32.4453 473.352 31.2422C473.071 30.0234 472.852 29.0234 472.696 28.2422C472.556 29.0234 472.352 29.9922 472.087 31.1484C471.837 32.2891 471.571 33.4219 471.29 34.5469C471.024 35.6719 470.79 36.6094 470.587 37.3594L469.11 42.9844H476.399Z" fill="#0066B3"/>
<g clip-path="url(#clip0_722_110)">
<path d="M233.71 82.168L218.329 125H213.319L197.938 82.168H203.153L213.173 110.381C213.583 111.514 213.944 112.598 214.257 113.633C214.589 114.668 214.882 115.664 215.136 116.621C215.389 117.578 215.614 118.506 215.809 119.404C216.005 118.506 216.229 117.578 216.483 116.621C216.737 115.645 217.03 114.639 217.362 113.604C217.694 112.549 218.065 111.445 218.475 110.293L228.436 82.168H233.71ZM263.446 125H239.598V82.168H263.446V86.5625H244.579V100.42H262.362V104.756H244.579V120.605H263.446V125ZM306.952 103.174C306.952 107.998 306.073 112.031 304.315 115.273C302.557 118.496 300.009 120.928 296.669 122.568C293.348 124.189 289.315 125 284.569 125H272.938V82.168H285.858C290.214 82.168 293.964 82.9688 297.108 84.5703C300.253 86.1523 302.675 88.5059 304.374 91.6309C306.093 94.7363 306.952 98.584 306.952 103.174ZM301.708 103.35C301.708 99.502 301.063 96.3281 299.774 93.8281C298.505 91.3281 296.63 89.4727 294.149 88.2617C291.688 87.0312 288.671 86.416 285.097 86.416H277.919V120.723H283.983C289.882 120.723 294.306 119.268 297.255 116.357C300.223 113.447 301.708 109.111 301.708 103.35ZM343.339 125L338.065 111.406H320.897L315.653 125H310.614L327.372 81.9922H331.854L348.495 125H343.339ZM336.571 106.982L331.561 93.4766C331.444 93.125 331.249 92.5488 330.975 91.748C330.722 90.9473 330.458 90.1172 330.184 89.2578C329.911 88.3984 329.686 87.7051 329.511 87.1777C329.315 87.9785 329.1 88.7793 328.866 89.5801C328.651 90.3613 328.436 91.0938 328.222 91.7773C328.007 92.4414 327.821 93.0078 327.665 93.4766L322.567 106.982H336.571Z" fill="#0066B3"/>
<rect x="369.938" y="76" width="121" height="52" rx="12" fill="#0066B3"/>
<path d="M392.813 91.1562H399.923C402.964 91.1562 405.266 91.5833 406.829 92.4375C408.391 93.2917 409.173 94.7917 409.173 96.9375C409.173 97.8021 409.032 98.5833 408.751 99.2812C408.48 99.9792 408.084 100.552 407.563 101C407.042 101.448 406.407 101.74 405.657 101.875V102.031C406.417 102.188 407.105 102.458 407.72 102.844C408.334 103.219 408.824 103.771 409.188 104.5C409.563 105.219 409.751 106.177 409.751 107.375C409.751 108.76 409.412 109.948 408.735 110.938C408.058 111.927 407.089 112.688 405.829 113.219C404.579 113.74 403.089 114 401.36 114H392.813V91.1562ZM397.657 100.203H400.47C401.876 100.203 402.85 99.9844 403.391 99.5469C403.933 99.099 404.204 98.4427 404.204 97.5781C404.204 96.7031 403.881 96.0781 403.235 95.7031C402.6 95.3177 401.589 95.125 400.204 95.125H397.657V100.203ZM397.657 104.047V110H400.813C402.272 110 403.287 109.719 403.86 109.156C404.433 108.594 404.72 107.839 404.72 106.891C404.72 106.328 404.595 105.833 404.345 105.406C404.095 104.979 403.673 104.646 403.079 104.406C402.496 104.167 401.688 104.047 400.657 104.047H397.657ZM427.47 114H414.313V91.1562H427.47V95.125H419.157V100.141H426.891V104.109H419.157V110H427.47V114ZM441.063 114H436.22V95.1875H430.016V91.1562H447.266V95.1875H441.063V114ZM464.766 114L463.11 108.562H454.782L453.126 114H447.907L455.97 91.0625H461.891L469.985 114H464.766ZM461.954 104.5L460.298 99.1875C460.194 98.8333 460.053 98.3802 459.876 97.8281C459.709 97.2656 459.537 96.6979 459.36 96.125C459.194 95.5417 459.058 95.0365 458.954 94.6094C458.85 95.0365 458.704 95.5677 458.516 96.2031C458.339 96.8281 458.167 97.4219 458.001 97.9844C457.834 98.5469 457.714 98.9479 457.641 99.1875L456.001 104.5H461.954Z" fill="white"/>
</g>
<defs>
<clipPath id="clip0_722_110">
<rect width="293" height="68" fill="white" transform="translate(197.938 68)"/>
</clipPath>
</defs>
</svg>
