<svg width="128" height="128" viewBox="0 0 128 128" fill="none" xmlns="http://www.w3.org/2000/svg">
<path d="M112.306 63.9843C112.306 93.0482 88.3851 116.969 59.3212 116.969C30.2574 116.969 6.33691 93.0482 6.33691 63.9843C6.33691 34.9204 30.2574 11 59.3212 11C88.3851 11 112.306 34.9204 112.306 63.9843Z" fill="#0066B3"/>
<path d="M60.0515 15.8145C60.0515 16.0511 59.8568 16.2458 59.6198 16.2458C59.3832 16.2458 59.1885 16.0511 59.1885 15.8145C59.1885 15.5779 59.3832 15.3828 59.6198 15.3828C59.8568 15.3828 60.0515 15.5779 60.0515 15.8145Z" fill="white"/>
<path d="M63.0392 22.3534C63.0392 22.645 62.7993 22.8845 62.5081 22.8845C62.2164 22.8845 61.9766 22.645 61.9766 22.3534C61.9766 22.0621 62.2164 21.8223 62.5081 21.8223C62.7993 21.8223 63.0392 22.0621 63.0392 22.3534Z" fill="white"/>
<path d="M70.8083 33.0438C70.8083 33.335 70.5688 33.5749 70.2772 33.5749C69.9856 33.5749 69.7461 33.335 69.7461 33.0438C69.7461 32.7522 69.9856 32.5127 70.2772 32.5127C70.5688 32.5127 70.8083 32.7522 70.8083 33.0438Z" fill="white"/>
<path d="M58.3249 26.0386C58.3249 26.2752 58.1302 26.4703 57.8932 26.4703C57.6566 26.4703 57.4619 26.2752 57.4619 26.0386C57.4619 25.802 57.6566 25.6069 57.8932 25.6069C58.1302 25.6069 58.3249 25.802 58.3249 26.0386Z" fill="white"/>
<path d="M62.9724 28.4957C62.9724 28.7323 62.7772 28.9274 62.5407 28.9274C62.3041 28.9274 62.1094 28.7323 62.1094 28.4957C62.1094 28.2591 62.3041 28.064 62.5407 28.064C62.7772 28.064 62.9724 28.2591 62.9724 28.4957Z" fill="white"/>
<path d="M56.9313 21.6234C56.9313 21.9146 56.6915 22.1545 56.4002 22.1545C56.1086 22.1545 55.8691 21.9146 55.8691 21.6234C55.8691 21.3322 56.1086 21.0923 56.4002 21.0923C56.6915 21.0923 56.9313 21.3322 56.9313 21.6234Z" fill="white"/>
<path d="M49.8923 25.9058C49.8923 26.1428 49.6976 26.3375 49.461 26.3375C49.224 26.3375 49.0293 26.1428 49.0293 25.9058C49.0293 25.6692 49.224 25.4741 49.461 25.4741C49.6976 25.4741 49.8923 25.6692 49.8923 25.9058Z" fill="white"/>
<path d="M51.1534 26.7696C51.1534 27.0062 50.9583 27.2009 50.7217 27.2009C50.4851 27.2009 50.29 27.0062 50.29 26.7696C50.29 26.5326 50.4851 26.3379 50.7217 26.3379C50.9583 26.3379 51.1534 26.5326 51.1534 26.7696Z" fill="white"/>
<path d="M52.4161 27.6324C52.4161 27.869 52.221 28.0637 51.9844 28.0637C51.7474 28.0637 51.5527 27.869 51.5527 27.6324C51.5527 27.3954 51.7474 27.2007 51.9844 27.2007C52.221 27.2007 52.4161 27.3954 52.4161 27.6324Z" fill="white"/>
<path d="M50.4899 29.2925C50.4899 29.5291 50.2952 29.7242 50.0587 29.7242C49.8216 29.7242 49.627 29.5291 49.627 29.2925C49.627 29.0555 49.8216 28.8608 50.0587 28.8608C50.2952 28.8608 50.4899 29.0555 50.4899 29.2925Z" fill="white"/>
<path d="M40.4636 36.3307C40.4636 36.5677 40.2689 36.7624 40.0319 36.7624C39.7953 36.7624 39.6006 36.5677 39.6006 36.3307C39.6006 36.0941 39.7953 35.8994 40.0319 35.8994C40.2689 35.8994 40.4636 36.0941 40.4636 36.3307Z" fill="white"/>
<path d="M42.3224 38.5879C42.3224 38.8245 42.1273 39.0192 41.8907 39.0192C41.6541 39.0192 41.459 38.8245 41.459 38.5879C41.459 38.3509 41.6541 38.1562 41.8907 38.1562C42.1273 38.1562 42.3224 38.3509 42.3224 38.5879Z" fill="white"/>
<path d="M40.8614 75.0391C40.8614 75.2757 40.6663 75.4708 40.4297 75.4708C40.1932 75.4708 39.998 75.2757 39.998 75.0391C39.998 74.8025 40.1932 74.6074 40.4297 74.6074C40.6663 74.6074 40.8614 74.8025 40.8614 75.0391Z" fill="white"/>
<path d="M41.1271 85.0977C41.1271 85.3897 40.8868 85.6296 40.5956 85.6296C40.3043 85.6296 40.0645 85.3897 40.0645 85.0977C40.0645 84.8069 40.3043 84.5674 40.5956 84.5674C40.8868 84.5674 41.1271 84.8069 41.1271 85.0977Z" fill="white"/>
<path d="M35.4177 90.2444C35.4177 90.481 35.2226 90.6761 34.986 90.6761C34.7494 90.6761 34.5547 90.481 34.5547 90.2444C34.5547 90.007 34.7494 89.8127 34.986 89.8127C35.2226 89.8127 35.4177 90.007 35.4177 90.2444Z" fill="white"/>
<path d="M28.5798 92.3361C28.5798 92.6273 28.3399 92.8672 28.0487 92.8672C27.7575 92.8672 27.5176 92.6273 27.5176 92.3361C27.5176 92.0441 27.7575 91.8042 28.0487 91.8042C28.3399 91.8042 28.5798 92.0441 28.5798 92.3361Z" fill="white"/>
<path d="M27.1857 87.6873C27.1857 87.9786 26.9458 88.2184 26.6546 88.2184C26.3629 88.2184 26.123 87.9786 26.123 87.6873C26.123 87.3961 26.3629 87.1562 26.6546 87.1562C26.9458 87.1562 27.1857 87.3961 27.1857 87.6873Z" fill="white"/>
<path d="M26.3874 90.6421C26.3874 90.8787 26.1927 91.0734 25.9557 91.0734C25.7191 91.0734 25.5244 90.8787 25.5244 90.6421C25.5244 90.4051 25.7191 90.2104 25.9557 90.2104C26.1927 90.2104 26.3874 90.4051 26.3874 90.6421Z" fill="white"/>
<path d="M21.2751 88.1856C21.2751 88.4222 21.0804 88.6173 20.8434 88.6173C20.6068 88.6173 20.4121 88.4222 20.4121 88.1856C20.4121 87.949 20.6068 87.7539 20.8434 87.7539C21.0804 87.7539 21.2751 87.949 21.2751 88.1856Z" fill="white"/>
<path d="M39.1354 96.4854C39.1354 96.722 38.9407 96.9171 38.7042 96.9171C38.4672 96.9171 38.2725 96.722 38.2725 96.4854C38.2725 96.2488 38.4672 96.0537 38.7042 96.0537C38.9407 96.0537 39.1354 96.2488 39.1354 96.4854Z" fill="white"/>
<path d="M44.5134 92.5345C44.5134 92.8257 44.2735 93.0656 43.9823 93.0656C43.691 93.0656 43.4512 92.8257 43.4512 92.5345C43.4512 92.2433 43.691 92.0034 43.9823 92.0034C44.2735 92.0034 44.5134 92.2433 44.5134 92.5345Z" fill="white"/>
<path d="M45.1124 97.614C45.1124 97.8506 44.9177 98.0457 44.6807 98.0457C44.4441 98.0457 44.249 97.8506 44.249 97.614C44.249 97.3774 44.4441 97.1831 44.6807 97.1831C44.9177 97.1831 45.1124 97.3774 45.1124 97.614Z" fill="white"/>
<path d="M67.2214 92.7672C67.2214 93.0042 67.0267 93.1989 66.7897 93.1989C66.5531 93.1989 66.3584 93.0042 66.3584 92.7672C66.3584 92.5298 66.5531 92.3359 66.7897 92.3359C67.0267 92.3359 67.2214 92.5298 67.2214 92.7672Z" fill="white"/>
<path d="M56.9313 96.4187C56.9313 96.6561 56.7362 96.8504 56.4996 96.8504C56.2631 96.8504 56.0684 96.6561 56.0684 96.4187C56.0684 96.1821 56.2631 95.9878 56.4996 95.9878C56.7362 95.9878 56.9313 96.1821 56.9313 96.4187Z" fill="white"/>
<path d="M84.6179 101.665C84.6179 101.901 84.4232 102.096 84.1862 102.096C83.95 102.096 83.7549 101.901 83.7549 101.665C83.7549 101.428 83.95 101.233 84.1862 101.233C84.4232 101.233 84.6179 101.428 84.6179 101.665Z" fill="white"/>
<path d="M86.8747 81.2465C86.8747 81.5377 86.6348 81.7776 86.3436 81.7776C86.0524 81.7776 85.8125 81.5377 85.8125 81.2465C85.8125 80.9557 86.0524 80.7158 86.3436 80.7158C86.6348 80.7158 86.8747 80.9557 86.8747 81.2465Z" fill="white"/>
<path d="M82.6247 84.1355C82.6247 84.3729 82.43 84.5676 82.193 84.5676C81.9564 84.5676 81.7617 84.3729 81.7617 84.1355C81.7617 83.8997 81.9564 83.7046 82.193 83.7046C82.43 83.7046 82.6247 83.8997 82.6247 84.1355Z" fill="white"/>
<path d="M86.8093 84.9652C86.8093 85.2564 86.5694 85.4963 86.2782 85.4963C85.9869 85.4963 85.7471 85.2564 85.7471 84.9652C85.7471 84.674 85.9869 84.4341 86.2782 84.4341C86.5694 84.4341 86.8093 84.674 86.8093 84.9652Z" fill="white"/>
<path d="M82.6247 90.1114C82.6247 90.348 82.43 90.5427 82.193 90.5427C81.9564 90.5427 81.7617 90.348 81.7617 90.1114C81.7617 89.8744 81.9564 89.6797 82.193 89.6797C82.43 89.6797 82.6247 89.8744 82.6247 90.1114Z" fill="white"/>
<path d="M93.4493 78.3585C93.4493 78.595 93.2546 78.7902 93.018 78.7902C92.781 78.7902 92.5859 78.595 92.5859 78.3585C92.5859 78.1219 92.781 77.9268 93.018 77.9268C93.2546 77.9268 93.4493 78.1219 93.4493 78.3585Z" fill="white"/>
<path d="M94.5118 80.9818C94.5118 81.2738 94.272 81.5129 93.9807 81.5129C93.6891 81.5129 93.4492 81.2738 93.4492 80.9818C93.4492 80.6906 93.6891 80.4507 93.9807 80.4507C94.272 80.4507 94.5118 80.6906 94.5118 80.9818Z" fill="white"/>
<path d="M101.946 84.1024C101.946 84.3936 101.707 84.6335 101.415 84.6335C101.124 84.6335 100.884 84.3936 100.884 84.1024C100.884 83.8112 101.124 83.5713 101.415 83.5713C101.707 83.5713 101.946 83.8112 101.946 84.1024Z" fill="white"/>
<path d="M94.379 89.647C94.379 89.8836 94.1839 90.0783 93.9473 90.0783C93.7107 90.0783 93.5156 89.8836 93.5156 89.647C93.5156 89.4104 93.7107 89.2153 93.9473 89.2153C94.1839 89.2153 94.379 89.4104 94.379 89.647Z" fill="white"/>
<path d="M99.1589 85.1314C99.1589 85.368 98.9642 85.5627 98.7272 85.5627C98.4906 85.5627 98.2959 85.368 98.2959 85.1314C98.2959 84.8944 98.4906 84.6997 98.7272 84.6997C98.9642 84.6997 99.1589 84.8944 99.1589 85.1314Z" fill="white"/>
<path d="M98.296 92.1026C98.296 92.3392 98.1009 92.5343 97.8643 92.5343C97.6277 92.5343 97.4326 92.3392 97.4326 92.1026C97.4326 91.866 97.6277 91.6709 97.8643 91.6709C98.1009 91.6709 98.296 91.866 98.296 92.1026Z" fill="white"/>
<path d="M69.3517 21.1232C69.4248 20.8534 69.6433 20.6431 69.9181 20.5819L70.0688 19.4453L70.2919 20.5925C70.558 20.6685 70.7642 20.8862 70.8246 21.1586L71.9751 21.3216L70.8139 21.5262C70.7408 21.7886 70.5301 21.9932 70.2644 22.0581L70.0688 23.2275L69.8717 22.0495C69.6133 21.9747 69.4112 21.7652 69.3471 21.5019L68.2373 21.3216L69.3517 21.1232Z" fill="white"/>
<path d="M39.5812 102.571C39.6543 102.301 39.8728 102.09 40.1472 102.029L40.2983 100.894L40.5218 102.041C40.7875 102.116 40.9941 102.333 41.0537 102.606L42.2046 102.769L41.0434 102.974C40.9703 103.236 40.7592 103.441 40.4934 103.506L40.2983 104.675L40.1012 103.497C39.8424 103.422 39.6411 103.213 39.5766 102.949L38.4668 102.769L39.5812 102.571Z" fill="white"/>
<path d="M94.3288 92.0704C94.4019 91.8001 94.62 91.5898 94.8948 91.529L95.046 90.3921L95.2694 91.5393C95.5352 91.6149 95.7418 91.833 95.8013 92.1057L96.9518 92.2688L95.7911 92.4734C95.7175 92.7354 95.5072 92.94 95.2411 93.0049L95.046 94.1747L94.8488 92.9962C94.59 92.9215 94.3888 92.7116 94.3243 92.4491L93.2148 92.2688L94.3288 92.0704Z" fill="white"/>
<path d="M98.6626 80.3595C98.7353 80.0892 98.9539 79.8789 99.2282 79.8181L99.3794 78.6812L99.6028 79.8284C99.869 79.9048 100.076 80.1221 100.135 80.3948L101.286 80.5579L100.125 80.7624C100.051 81.0245 99.8407 81.2294 99.5753 81.2943L99.3794 82.4637L99.1826 81.2853C98.9239 81.211 98.7226 81.0015 98.6581 80.7382L97.5479 80.5579L98.6626 80.3595Z" fill="white"/>
<path d="M44.8946 37.1042C44.9678 36.8339 45.1863 36.624 45.4607 36.5624L45.6118 35.4263L45.8353 36.5735C46.1014 36.6491 46.3076 36.8668 46.3676 37.1395L47.5181 37.3026L46.3569 37.5067C46.2838 37.7692 46.0731 37.9742 45.8073 38.0391L45.6118 39.2085L45.4146 38.0304C45.1563 37.9553 44.9546 37.7458 44.8905 37.4829L43.7803 37.3026L44.8946 37.1042Z" fill="white"/>
<path d="M41.3823 61.7578C45.2967 68.5964 49.8585 73.6006 53.5339 78.3554C56.7961 82.5763 63.1516 84.6892 60.913 86.6924C58.3898 88.9499 52.2815 78.99 52.2815 78.99C48.2221 74.0947 44.3368 68.9012 40.373 62.109L41.3823 61.7578Z" fill="white"/>
<path d="M0 79.702C18.9126 67.2809 51.92 59.2618 79.1055 48.469C99.7601 40.2688 118.127 29.9749 128 15.8008C102.979 66.7679 33.2962 60.7348 1.3604 80.1768L0 79.702Z" fill="#ED1C24"/>
<path d="M43.9678 54.4302H53.4393L60.2302 71.5313L62.4939 73.8032H50.1632L52.4268 71.5313L51.6226 69.4447H44.8169L44.1169 71.8308L45.7402 73.8032H39.3066L41.5703 71.5313L45.9341 56.4083L43.9678 54.4302ZM50.4166 66.4508L47.6761 59.5066L45.6659 66.4508H50.4166Z" fill="white"/>
<path d="M87.9727 54.4302H97.8032L104.595 71.5313L106.858 73.8032H94.5274L96.7911 71.5313L95.9868 69.4447H89.1807L88.4808 71.8308L90.1041 73.8032H83.6709L85.9345 71.5313L90.2979 56.4083L87.9727 54.4302ZM94.7805 66.4508L92.0403 59.5066L90.0297 66.4508H94.7805Z" fill="white"/>
<path d="M31.1156 66.4955V56.4083L29.1501 54.4302H35.7024L33.737 56.4083V71.5313L36.0006 73.8032H27.3925L19.9764 61.2577V71.5313L21.8823 73.8032H15.0322L17.2959 71.5313V56.4083L15.33 54.4302H23.9081L31.1156 66.4955Z" fill="white"/>
<path d="M80.7293 59.3991L80.528 53.3672L78.4977 54.7687C75.6372 53.7685 72.3085 53.8063 69.9726 54.9116C67.7985 55.9405 65.4531 58.113 65.7385 61.1998C66.0248 64.287 68.417 65.4819 70.5731 66.459C73.3481 67.7167 76.3683 68.1419 76.3236 69.8034C76.2948 70.8606 74.5405 71.6189 73.1768 71.5757C71.9322 71.5363 67.8843 71.2324 65.7673 68.7173L66.1682 75.0622L68.4281 73.4048C71.174 74.3762 74.5023 74.7837 77.5813 73.7794C80.6422 72.7821 83.8596 70.2207 82.0741 65.7447C81.3056 63.8187 79.1894 62.6312 77.9271 62.1145C76.7713 61.6413 73.2458 60.2551 72.2613 59.742C71.1112 59.1432 71.2393 57.2414 74.0065 56.8553C76.5129 56.5057 79.9854 58.5131 80.7293 59.3991Z" fill="white"/>
<path d="M14.6457 109.443C52.6273 70.6782 109.243 52.7683 128 15.8008C116.704 51.7414 56.2086 71.5638 14.543 111.266L14.6457 109.443Z" fill="#ED1C24"/>
<path d="M40.3745 62.1083C39.9297 61.3459 39.4844 60.5634 39.0371 59.7592C28.9109 41.5424 30.3715 22.9515 48.6975 31.0519C64.2514 37.927 79.107 57.2117 85.0814 70.9078C87.8502 77.2535 95.2733 102.16 71.3705 92.0676L71.3237 91.9218C93.8985 101.217 89.996 77.6617 77.9122 59.6019C71.074 49.3828 62.1566 40.8704 56.5322 36.7617C37.8082 23.0841 26.3881 31.4503 39.5345 58.2739C40.1293 59.4877 40.7479 60.6468 41.3837 61.7571L40.3745 62.1083Z" fill="white"/>
</svg>
